<?xml version="1.0" encoding="utf-8"?>
<svg version="1.1" xmlns:xlink="http://www.w3.org/1999/xlink" width="18px" height="15px" xmlns="http://www.w3.org/2000/svg">
  <g transform="matrix(1 0 0 1 -464 -1017 )">
    <path d="M 18 1.875  C 18 0.8390624999999996  17.1945 0  16.2 0  L 1.8 0  C 0.8055 0  0.008999999999999809 0.8390624999999996  0 1.875  L 0 13.125  C 0 14.160937500000001  0.8055 15  1.8 15  L 16.2 15  C 17.1945 15  18 14.160937500000001  18 13.125  L 18 1.875  Z M 16.2 1.875  L 16.2 3.75  L 9 8.4375  L 1.8 3.75  L 1.8 1.875  L 9 6.5625  L 16.2 1.875  Z " fill-rule="nonzero" fill="#ffffff" stroke="none" transform="matrix(1 0 0 1 464 1017 )" />
  </g>
</svg>