<?xml version="1.0" encoding="utf-8"?>
<svg version="1.1" xmlns:xlink="http://www.w3.org/1999/xlink" width="26px" height="21px" xmlns="http://www.w3.org/2000/svg">
  <g transform="matrix(1 0 0 1 -767 -1643 )">
    <path d="M 26 2.625  C 26 1.1746874999999994  24.8365 0  23.400000000000002 0  L 2.6 0  C 1.1635 0  0.012999999999999724 1.1746874999999994  0 2.625  L 0 18.375  C 0 19.8253125  1.1635 21  2.6 21  L 23.400000000000002 21  C 24.8365 21  26 19.8253125  26 18.375  L 26 2.625  Z M 23.400000000000002 2.625  L 23.400000000000002 5.25  L 13 11.8125  L 2.6 5.25  L 2.6 2.625  L 13 9.1875  L 23.400000000000002 2.625  Z " fill-rule="nonzero" fill="#ffffff" stroke="none" transform="matrix(1 0 0 1 767 1643 )" />
  </g>
</svg>