<?xml version="1.0" encoding="utf-8"?>
<svg version="1.1" xmlns:xlink="http://www.w3.org/1999/xlink" width="23px" height="19px" xmlns="http://www.w3.org/2000/svg">
  <g transform="matrix(1 0 0 1 -674 -1491 )">
    <path d="M 23 2.375  C 23 1.0628124999999995  21.970750000000002 0  20.7 0  L 2.3000000000000003 0  C 1.02925 0  0.011499999999999755 1.0628124999999995  0 2.375  L 0 16.625  C 0 17.9371875  1.02925 19  2.3000000000000003 19  L 20.7 19  C 21.970750000000002 19  23 17.9371875  23 16.625  L 23 2.375  Z M 20.7 2.375  L 20.7 4.75  L 11.5 10.6875  L 2.3000000000000003 4.75  L 2.3000000000000003 2.375  L 11.5 8.3125  L 20.7 2.375  Z " fill-rule="nonzero" fill="#ffffff" stroke="none" transform="matrix(1 0 0 1 674 1491 )" />
  </g>
</svg>