<?xml version="1.0" encoding="utf-8"?>
<svg version="1.1" xmlns:xlink="http://www.w3.org/1999/xlink" width="23px" height="23px" xmlns="http://www.w3.org/2000/svg">
  <g transform="matrix(1 0 0 1 -576 -1642 )">
    <path d="M 14.210286458333332 14.210286458333336  C 14.958984375 13.461588541666664  15.333333333333332 12.558159722222221  15.333333333333332 11.5  C 15.333333333333332 10.441840277777775  14.958984375 9.538411458333332  14.210286458333332 8.789713541666668  C 13.461588541666668 8.041015625  12.558159722222225 7.666666666666668  11.5 7.666666666666668  C 10.441840277777779 7.666666666666668  9.538411458333334 8.041015625  8.789713541666666 8.789713541666668  C 8.041015625 9.538411458333332  7.666666666666666 10.441840277777775  7.666666666666666 11.5  C 7.666666666666666 12.558159722222221  8.041015625 13.461588541666664  8.789713541666666 14.210286458333336  C 9.538411458333334 14.958984375  10.441840277777779 15.333333333333336  11.5 15.333333333333336  C 12.558159722222225 15.333333333333336  13.461588541666668 14.958984375  14.210286458333332 14.210286458333336  Z M 15.677734375 7.322265625  C 16.825737847222225 8.47026909722222  17.399739583333332 9.86284722222222  17.399739583333332 11.5  C 17.399739583333332 13.137152777777779  16.825737847222225 14.529730902777779  15.677734375 15.677734375  C 14.529730902777779 16.82573784722222  13.137152777777779 17.399739583333332  11.5 17.399739583333332  C 9.862847222222223 17.399739583333332  8.470269097222223 16.82573784722222  7.322265625 15.677734375  C 6.174262152777779 14.529730902777779  5.600260416666667 13.137152777777779  5.600260416666667 11.5  C 5.600260416666667 9.86284722222222  6.174262152777779 8.47026909722222  7.322265625 7.322265625  C 8.470269097222223 6.174262152777776  9.862847222222223 5.600260416666668  11.5 5.600260416666668  C 13.137152777777779 5.600260416666668  14.529730902777779 6.174262152777776  15.677734375 7.322265625  Z M 18.612630208333332 4.387369791666668  C 18.882161458333332 4.656901041666668  19.016927083333332 4.9813368055555545  19.016927083333332 5.360677083333332  C 19.016927083333332 5.740017361111111  18.882161458333332 6.064453125  18.612630208333332 6.333984375  C 18.343098958333332 6.603515625  18.018663194444446 6.73828125  17.639322916666668 6.73828125  C 17.25998263888889 6.73828125  16.935546875 6.603515625  16.666015625 6.333984375  C 16.396484375 6.064453125  16.26171875 5.740017361111111  16.26171875 5.360677083333332  C 16.26171875 4.9813368055555545  16.396484375 4.656901041666668  16.666015625 4.387369791666668  C 16.935546875 4.117838541666668  17.25998263888889 3.9830729166666674  17.639322916666668 3.9830729166666674  C 18.018663194444446 3.9830729166666674  18.343098958333332 4.117838541666668  18.612630208333332 4.387369791666668  Z M 12.6455078125 2.0589192708333326  C 11.951714409722225 2.063910590277776  11.569878472222225 2.06640625  11.5 2.06640625  C 11.430121527777779 2.06640625  11.048285590277779 2.063910590277776  10.3544921875 2.0589192708333326  C 9.660698784722223 2.0539279513888866  9.134114583333334 2.0539279513888866  8.774739583333334 2.0589192708333326  C 8.415364583333334 2.063910590277776  7.933702256944445 2.0788845486111107  7.329752604166666 2.1038411458333326  C 6.72580295138889 2.128797743055554  6.2116970486111125 2.1787109375  5.787434895833334 2.2535807291666674  C 5.363172743055556 2.3284505208333326  5.006293402777779 2.420789930555554  4.716796875 2.5305989583333326  C 4.217664930555556 2.7302517361111107  3.7784288194444446 3.0197482638888866  3.399088541666667 3.3990885416666674  C 3.0197482638888893 3.7784288194444433  2.730251736111111 4.2176649305555545  2.5305989583333335 4.716796875  C 2.420789930555556 5.006293402777776  2.3284505208333335 5.3631727430555545  2.2535807291666665 5.787434895833332  C 2.1787109375 6.211697048611111  2.128797743055556 6.725802951388887  2.1038411458333335 7.329752604166668  C 2.078884548611111 7.933702256944443  2.063910590277778 8.415364583333332  2.0589192708333335 8.774739583333332  C 2.0539279513888893 9.134114583333332  2.0539279513888893 9.66069878472222  2.0589192708333335 10.3544921875  C 2.063910590277778 11.048285590277775  2.06640625 11.430121527777775  2.06640625 11.5  C 2.06640625 11.569878472222221  2.063910590277778 11.951714409722221  2.0589192708333335 12.6455078125  C 2.0539279513888893 13.339301215277779  2.0539279513888893 13.865885416666664  2.0589192708333335 14.225260416666664  C 2.063910590277778 14.584635416666664  2.078884548611111 15.066297743055552  2.1038411458333335 15.670247395833336  C 2.128797743055556 16.274197048611107  2.1787109375 16.788302951388886  2.2535807291666665 17.212565104166664  C 2.3284505208333335 17.636827256944443  2.420789930555556 17.993706597222218  2.5305989583333335 18.283203125  C 2.730251736111111 18.782335069444443  3.0197482638888893 19.221571180555557  3.399088541666667 19.600911458333332  C 3.7784288194444446 19.98025173611111  4.217664930555556 20.26974826388889  4.716796875 20.469401041666668  C 5.006293402777779 20.579210069444443  5.363172743055556 20.671549479166668  5.787434895833334 20.746419270833332  C 6.2116970486111125 20.8212890625  6.72580295138889 20.871202256944443  7.329752604166666 20.896158854166668  C 7.933702256944445 20.92111545138889  8.415364583333334 20.936089409722225  8.774739583333334 20.941080729166668  C 9.134114583333334 20.94607204861111  9.660698784722223 20.94607204861111  10.3544921875 20.941080729166668  C 11.048285590277779 20.936089409722225  11.430121527777779 20.93359375  11.5 20.93359375  C 11.569878472222225 20.93359375  11.951714409722225 20.936089409722225  12.6455078125 20.941080729166668  C 13.339301215277779 20.94607204861111  13.865885416666668 20.94607204861111  14.225260416666668 20.941080729166668  C 14.584635416666668 20.936089409722225  15.066297743055557 20.92111545138889  15.670247395833332 20.896158854166668  C 16.274197048611114 20.871202256944443  16.78830295138889 20.8212890625  17.212565104166668 20.746419270833332  C 17.636827256944446 20.671549479166668  17.993706597222225 20.579210069444443  18.283203125 20.469401041666668  C 18.782335069444446 20.26974826388889  19.221571180555557 19.98025173611111  19.600911458333332 19.600911458333332  C 19.980251736111114 19.221571180555557  20.26974826388889 18.782335069444443  20.469401041666668 18.283203125  C 20.579210069444446 17.993706597222218  20.671549479166668 17.636827256944443  20.746419270833332 17.212565104166664  C 20.8212890625 16.788302951388886  20.871202256944446 16.274197048611107  20.896158854166668 15.670247395833336  C 20.92111545138889 15.066297743055552  20.936089409722225 14.584635416666664  20.941080729166668 14.225260416666664  C 20.946072048611114 13.865885416666664  20.946072048611114 13.339301215277779  20.941080729166668 12.6455078125  C 20.936089409722225 11.951714409722221  20.93359375 11.569878472222221  20.93359375 11.5  C 20.93359375 11.430121527777775  20.936089409722225 11.048285590277775  20.941080729166668 10.3544921875  C 20.946072048611114 9.66069878472222  20.946072048611114 9.134114583333332  20.941080729166668 8.774739583333332  C 20.936089409722225 8.415364583333332  20.92111545138889 7.933702256944443  20.896158854166668 7.329752604166668  C 20.871202256944446 6.725802951388887  20.8212890625 6.211697048611111  20.746419270833332 5.787434895833332  C 20.671549479166668 5.3631727430555545  20.579210069444446 5.006293402777776  20.469401041666668 4.716796875  C 20.26974826388889 4.2176649305555545  19.980251736111114 3.7784288194444433  19.600911458333332 3.3990885416666674  C 19.221571180555557 3.0197482638888866  18.782335069444446 2.7302517361111107  18.283203125 2.5305989583333326  C 17.993706597222225 2.420789930555554  17.636827256944446 2.3284505208333326  17.212565104166668 2.2535807291666674  C 16.78830295138889 2.1787109375  16.274197048611114 2.128797743055554  15.670247395833332 2.1038411458333326  C 15.066297743055557 2.0788845486111107  14.584635416666668 2.063910590277776  14.225260416666668 2.0589192708333326  C 13.865885416666668 2.0539279513888866  13.339301215277779 2.0539279513888866  12.6455078125 2.0589192708333326  Z M 22.925130208333332 6.753255208333332  C 22.975043402777775 7.6317274305555545  23 9.213975694444443  23 11.5  C 23 13.786024305555557  22.975043402777775 15.368272569444443  22.925130208333332 16.246744791666664  C 22.825303819444446 18.323133680555557  22.206380208333332 19.930338541666668  21.068359375 21.068359375  C 19.930338541666668 22.206380208333332  18.323133680555557 22.825303819444443  16.246744791666668 22.925130208333332  C 15.368272569444446 22.975043402777775  13.786024305555557 23  11.5 23  C 9.213975694444445 23  7.631727430555555 22.975043402777775  6.753255208333334 22.925130208333332  C 4.6768663194444455 22.825303819444443  3.069661458333334 22.206380208333332  1.931640625 21.068359375  C 0.7936197916666667 19.930338541666668  0.17469618055555558 18.323133680555557  0.07486979166666667 16.246744791666664  C 0.024956597222222217 15.368272569444443  0 13.786024305555557  0 11.5  C 0 9.213975694444443  0.024956597222222217 7.6317274305555545  0.07486979166666667 6.753255208333332  C 0.17469618055555558 4.676866319444443  0.7936197916666667 3.0696614583333326  1.931640625 1.931640625  C 3.069661458333334 0.7936197916666675  4.6768663194444455 0.17469618055555414  6.753255208333334 0.07486979166666752  C 7.631727430555555 0.0249565972222191  9.213975694444445 0  11.5 0  C 13.786024305555557 0  15.368272569444446 0.0249565972222191  16.246744791666668 0.07486979166666752  C 18.323133680555557 0.17469618055555414  19.930338541666668 0.7936197916666675  21.068359375 1.931640625  C 22.206380208333332 3.0696614583333326  22.825303819444446 4.676866319444443  22.925130208333332 6.753255208333332  Z " fill-rule="nonzero" fill="#000000" stroke="none" transform="matrix(1 0 0 1 576 1642 )" />
  </g>
</svg>