<?xml version="1.0" encoding="utf-8"?>
<svg version="1.1" xmlns:xlink="http://www.w3.org/1999/xlink" width="21px" height="21px" xmlns="http://www.w3.org/2000/svg">
  <g transform="matrix(1 0 0 1 -373 -1014 )">
    <path d="M 3.240234375 8.09375  L 3.240234375 17.58203125  L 6.3984375 17.58203125  L 6.3984375 8.09375  L 3.240234375 8.09375  Z M 6.111328125 6.3369140625  C 6.439453125000001 6.022460937499999  6.603515625000001 5.632812499999999  6.603515625 5.16796875  C 6.594401041666668 4.694010416666665  6.430338541666668 4.302083333333332  6.111328125 3.992187499999999  C 5.792317708333334 3.6822916666666665  5.368489583333333 3.52734375  4.83984375 3.52734375  C 4.311197916666667 3.52734375  3.8805338541666674 3.6822916666666665  3.5478515625 3.992187499999999  C 3.215169270833334 4.302083333333332  3.048828125 4.694010416666665  3.048828125 5.16796875  C 3.048828125 5.632812499999999  3.210611979166667 6.022460937499999  3.5341796875 6.3369140625  C 3.8577473958333335 6.651367187500001  4.279296875 6.80859375  4.798828125 6.80859375  L 4.8125 6.80859375  C 5.350260416666667 6.80859375  5.783203125000001 6.651367187500001  6.111328125 6.3369140625  Z M 14.6015625 12.509765625  L 14.6015625 17.58203125  L 17.759765625 17.58203125  L 17.759765625 12.140625  C 17.759765625 10.736979166666664  17.427083333333336 9.675130208333332  16.76171875 8.955078125  C 16.096354166666668 8.235026041666666  15.216796875 7.875  14.123046875 7.875  C 12.883463541666668 7.875  11.930989583333334 8.408203125  11.265625 9.474609375  L 11.29296875 9.474609375  L 11.29296875 8.09375  L 8.134765625 8.09375  C 8.162109375 8.6953125  8.162109375 11.858072916666666  8.134765625 17.58203125  L 11.29296875 17.58203125  L 11.29296875 12.277343750000002  C 11.29296875 11.930989583333334  11.324869791666668 11.675781249999998  11.388671875 11.511718749999998  C 11.525390625 11.192708333333334  11.73046875 10.921549479166664  12.00390625 10.698242187500002  C 12.27734375 10.474934895833332  12.614583333333336 10.36328125  13.015625 10.36328125  C 14.072916666666668 10.36328125  14.6015625 11.078776041666666  14.6015625 12.509765625  Z M 19.8447265625 1.1552734375000009  C 20.614908854166664 1.9254557291666647  21 2.8528645833333304  21 3.9375  L 21 17.0625  C 21 18.147135416666664  20.614908854166664 19.074544270833336  19.8447265625 19.8447265625  C 19.074544270833336 20.614908854166664  18.147135416666668 21  17.0625 21  L 3.9375 21  C 2.8528645833333335 21  1.925455729166667 20.614908854166664  1.1552734375 19.8447265625  C 0.38509114583333326 19.074544270833336  0 18.147135416666664  0 17.0625  L 0 3.9375  C 0 2.8528645833333304  0.38509114583333326 1.9254557291666647  1.1552734375 1.1552734375000009  C 1.925455729166667 0.38509114583333204  2.8528645833333335 0  3.9375 0  L 17.0625 0  C 18.147135416666668 0  19.074544270833336 0.38509114583333204  19.8447265625 1.1552734375000009  Z " fill-rule="nonzero" fill="#ffffff" stroke="none" transform="matrix(1 0 0 1 373 1014 )" />
  </g>
</svg>