<?xml version="1.0" encoding="utf-8"?>
<svg version="1.1" xmlns:xlink="http://www.w3.org/1999/xlink" width="42px" height="42px" xmlns="http://www.w3.org/2000/svg">
  <g transform="matrix(1 0 0 1 -894 -2290 )">
    <path d="M 7 16.1875  L 7 35.1640625  L 13 35.1640625  L 13 16.1875  L 7 16.1875  Z M 12.22265625 12.673828125  C 12.878906250000002 12.044921874999998  13.207031250000002 11.265624999999998  13.20703125 10.3359375  C 13.188802083333336 9.38802083333333  12.860677083333336 8.604166666666664  12.22265625 7.984374999999998  C 11.584635416666668 7.364583333333333  10.736979166666666 7.0546875  9.6796875 7.0546875  C 8.622395833333334 7.0546875  7.761067708333335 7.364583333333333  7.095703125 7.984374999999998  C 6.430338541666668 8.604166666666664  6.09765625 9.38802083333333  6.09765625 10.3359375  C 6.09765625 11.265624999999998  6.421223958333334 12.044921874999998  7.068359375 12.673828125  C 7.715494791666667 13.302734375000002  8.55859375 13.6171875  9.59765625 13.6171875  L 9.625 13.6171875  C 10.700520833333334 13.6171875  11.566406250000002 13.302734375000002  12.22265625 12.673828125  Z M 29 25.01953125  L 29 35.1640625  L 35 35.1640625  L 35 24.28125  C 35.51953125 21.47395833333333  34.85416666666667 19.350260416666664  33.5234375 17.91015625  C 32.192708333333336 16.470052083333332  30.43359375 15.75  28.24609375 15.75  C 25.766927083333336 15.75  23.861979166666668 16.81640625  22.53125 18.94921875  L 22.5859375 18.94921875  L 22.5859375 16.1875  L 16.26953125 16.1875  C 16.32421875 17.390625  16.32421875 23.716145833333332  16.26953125 35.1640625  L 22 35.1640625  L 22 24.554687500000004  C 22.5859375 23.861979166666668  22.649739583333336 23.351562499999996  22.77734375 23.023437499999996  C 23.05078125 22.385416666666668  23.4609375 21.84309895833333  24.0078125 21.396484375000004  C 24.5546875 20.949869791666664  25.22916666666667 20.7265625  26.03125 20.7265625  C 28.145833333333336 20.7265625  29.203125 22.157552083333332  29 25.01953125  Z M 39.689453125 2.3105468750000018  C 41.22981770833333 3.8509114583333295  42 5.705729166666661  42 7.875  L 42 34.125  C 42 36.29427083333333  41.22981770833333 38.14908854166667  39.689453125 39.689453125  C 38.14908854166667 41.22981770833333  36.294270833333336 42  34.125 42  L 7.875 42  C 5.705729166666667 42  3.850911458333334 41.22981770833333  2.310546875 39.689453125  C 0.7701822916666665 38.14908854166667  0 36.29427083333333  0 34.125  L 0 7.875  C 0 5.705729166666661  0.7701822916666665 3.8509114583333295  2.310546875 2.3105468750000018  C 3.850911458333334 0.7701822916666641  5.705729166666667 0  7.875 0  L 34.125 0  C 36.294270833333336 0  38.14908854166667 0.7701822916666641  39.689453125 2.3105468750000018  Z " fill-rule="nonzero" fill="#ffffff" stroke="none" transform="matrix(1 0 0 1 894 2290 )" />
  </g>
</svg>