<?xml version="1.0" encoding="utf-8"?>
<svg version="1.1" xmlns:xlink="http://www.w3.org/1999/xlink" width="19px" height="19px" xmlns="http://www.w3.org/2000/svg">
  <g transform="matrix(1 0 0 1 -165 -1179 )">
    <path d="M 2.931640625 7.322916666666666  L 2.931640625 15.907552083333334  L 5.7890625 15.907552083333334  L 5.7890625 7.322916666666666  L 2.931640625 7.322916666666666  Z M 5.529296875 5.7333984375  C 5.826171875000001 5.448893229166666  5.974609375000001 5.096354166666666  5.974609375 4.67578125  C 5.966362847222223 4.246961805555554  5.817925347222223 3.89236111111111  5.529296875 3.611979166666666  C 5.240668402777778 3.331597222222222  4.857204861111111 3.19140625  4.37890625 3.19140625  C 3.9006076388888897 3.19140625  3.5109592013888897 3.331597222222222  3.2099609375 3.611979166666666  C 2.9089626736111116 3.89236111111111  2.7584635416666665 4.246961805555554  2.7584635416666665 4.67578125  C 2.7584635416666665 5.096354166666666  2.9048394097222223 5.448893229166666  3.1975911458333335 5.7333984375  C 3.4903428819444446 6.017903645833334  3.8717447916666665 6.16015625  4.341796875 6.16015625  L 4.354166666666666 6.16015625  C 4.840711805555556 6.16015625  5.232421875000001 6.017903645833334  5.529296875 5.7333984375  Z M 13.2109375 11.318359375  L 13.2109375 15.907552083333334  L 16.068359375 15.907552083333334  L 16.068359375 10.984375  C 16.068359375 9.71440972222222  15.767361111111112 8.75368923611111  15.165364583333334 8.102213541666666  C 14.563368055555559 7.450737847222222  13.767578125 7.125  12.777994791666666 7.125  C 11.65646701388889 7.125  10.794704861111112 7.607421875  10.192708333333334 8.572265625  L 10.217447916666666 8.572265625  L 10.217447916666666 7.322916666666666  L 7.360026041666667 7.322916666666666  C 7.384765625 7.8671875  7.384765625 10.728732638888888  7.360026041666667 15.907552083333334  L 10.217447916666666 15.907552083333334  L 10.217447916666666 11.108072916666668  C 10.217447916666666 10.794704861111112  10.24631076388889 10.563802083333332  10.304036458333334 10.415364583333332  C 10.427734375 10.126736111111112  10.61328125 9.88140190972222  10.860677083333334 9.679361979166668  C 11.108072916666666 9.47732204861111  11.413194444444446 9.376302083333334  11.776041666666666 9.376302083333334  C 12.73263888888889 9.376302083333334  13.2109375 10.023654513888888  13.2109375 11.318359375  Z M 17.954752604166664 1.045247395833334  C 18.65158420138889 1.742078993055554  19 2.581163194444442  19 3.5625  L 19 15.4375  C 19 16.418836805555554  18.65158420138889 17.257921006944446  17.954752604166664 17.954752604166664  C 17.257921006944446 18.65158420138889  16.418836805555557 19  15.4375 19  L 3.5625 19  C 2.5811631944444446 19  1.7420789930555558 18.65158420138889  1.0452473958333335 17.954752604166664  C 0.34841579861111105 17.257921006944446  0 16.418836805555554  0 15.4375  L 0 3.5625  C 0 2.581163194444442  0.34841579861111105 1.742078993055554  1.0452473958333335 1.045247395833334  C 1.7420789930555558 0.34841579861110994  2.5811631944444446 0  3.5625 0  L 15.4375 0  C 16.418836805555557 0  17.257921006944446 0.34841579861110994  17.954752604166664 1.045247395833334  Z " fill-rule="nonzero" fill="#ffffff" stroke="none" transform="matrix(1 0 0 1 165 1179 )" />
  </g>
</svg>