<?xml version="1.0" encoding="utf-8"?>
<svg version="1.1" xmlns:xlink="http://www.w3.org/1999/xlink" width="19px" height="19px" xmlns="http://www.w3.org/2000/svg">
  <g transform="matrix(1 0 0 1 -206 -1179 )">
    <path d="M 3.5625 0  L 15.4375 0  C 16.418836805555557 0  17.257921006944446 0.34841579861110994  17.954752604166664 1.045247395833334  C 18.65158420138889 1.742078993055554  19 2.581163194444442  19 3.5625  L 19 15.4375  C 19 16.418836805555554  18.65158420138889 17.257921006944446  17.954752604166664 17.954752604166664  C 17.257921006944446 18.65158420138889  16.418836805555557 19  15.4375 19  L 3.5625 19  C 2.5811631944444446 19  1.7420789930555558 18.65158420138889  1.0452473958333335 17.954752604166664  C 0.34841579861111105 17.257921006944446  0 16.418836805555554  0 15.4375  L 0 3.5625  C 0 2.581163194444442  0.34841579861111105 1.742078993055554  1.0452473958333335 1.045247395833334  C 1.7420789930555558 0.34841579861110994  2.5811631944444446 0  3.5625 0  Z M 7.372395833333333 4.644856770833334  C 7.026041666666667 4.574761284722222  6.626085069444445 4.539713541666666  6.172526041666667 4.539713541666666  L 1.5833333333333333 4.539713541666666  L 1.5833333333333333 14.274739583333334  L 6.30859375 14.274739583333334  C 7.2734375 14.274739583333334  8.085720486111112 14.03765190972222  8.745442708333332 13.5634765625  C 9.405164930555555 13.089301215277775  9.735026041666666 12.38628472222222  9.735026041666666 11.454427083333332  C 9.735026041666666 10.151475694444445  9.145399305555555 9.326822916666666  7.966145833333333 8.98046875  C 8.848524305555555 8.551649305555554  9.289713541666668 7.875434027777778  9.289713541666668 6.951822916666666  C 9.289713541666668 6.481770833333332  9.209309895833332 6.083875868055554  9.048502604166668 5.758138020833334  C 8.8876953125 5.43240017361111  8.654730902777779 5.182942708333334  8.349609375 5.009765625  C 8.044487847222223 4.836588541666666  7.71875 4.714952256944442  7.372395833333333 4.644856770833334  Z M 7.211588541666667 7.310546875  C 7.211588541666667 8.08572048611111  6.774522569444445 8.473307291666666  5.900390625 8.473307291666666  L 3.7233072916666665 8.473307291666666  L 3.7233072916666665 6.197265625  L 5.739583333333333 6.197265625  C 6.720920138888889 6.197265625  7.211588541666667 6.568359375  7.211588541666667 7.310546875  Z M 7.595052083333333 11.330729166666668  C 7.595052083333333 12.188368055555555  7.067274305555556 12.6171875  6.01171875 12.6171875  L 3.7233072916666665 12.6171875  L 3.7233072916666665 9.932942708333332  L 6.061197916666667 9.932942708333332  C 7.0837673611111125 9.932942708333332  7.595052083333333 10.398871527777775  7.595052083333333 11.330729166666668  Z M 14.986002604166666 12.765625  C 14.685004340277779 12.930555555555555  14.373697916666666 13.013020833333332  14.052083333333334 13.013020833333332  C 13.491319444444446 13.013020833333332  13.0625 12.856336805555555  12.765625 12.54296875  C 12.468750000000002 12.229600694444445  12.320312500000002 11.788411458333332  12.3203125 11.219401041666668  L 17.404296875 11.219401041666668  C 17.41254340277778 11.136935763888888  17.416666666666664 11.01323784722222  17.416666666666664 10.848307291666668  C 17.416666666666664 9.759765625  17.109483506944446 8.8505859375  16.4951171875 8.120768229166666  C 15.880750868055559 7.390950520833332  15.041666666666666 7.026041666666666  13.977864583333334 7.026041666666666  C 12.922309027777779 7.026041666666666  12.056423611111112 7.38064236111111  11.380208333333334 8.08984375  C 10.703993055555555 8.799045138888888  10.365885416666666 9.689670138888888  10.365885416666666 10.76171875  C 10.365885416666666 11.875  10.69162326388889 12.769748263888888  11.343098958333334 13.445963541666668  C 11.994574652777779 14.122178819444445  12.872829861111112 14.460286458333334  13.977864583333334 14.460286458333334  C 15.668402777777779 14.460286458333334  16.76931423611111 13.672743055555555  17.280598958333336 12.09765625  L 15.573567708333334 12.09765625  C 15.482855902777779 12.378038194444445  15.287000868055559 12.600694444444445  14.986002604166666 12.765625  Z M 12.802734375 8.893880208333334  C 13.091362847222225 8.621744791666666  13.466579861111112 8.485677083333334  13.928385416666666 8.485677083333334  C 14.860243055555559 8.485677083333334  15.371527777777779 8.988715277777779  15.462239583333334 9.994791666666668  L 12.3203125 9.994791666666668  C 12.353298611111112 9.532986111111112  12.514105902777779 9.166015625  12.802734375 8.893880208333334  Z M 11.924479166666666 6.147786458333334  L 11.924479166666666 5.1953125  L 15.870442708333334 5.1953125  L 15.870442708333334 6.147786458333334  L 11.924479166666666 6.147786458333334  Z " fill-rule="nonzero" fill="#ffffff" stroke="none" transform="matrix(1 0 0 1 206 1179 )" />
  </g>
</svg>