<?xml version="1.0" encoding="utf-8"?>
<svg version="1.1" xmlns:xlink="http://www.w3.org/1999/xlink" width="26px" height="26px" xmlns="http://www.w3.org/2000/svg">
  <g transform="matrix(1 0 0 1 -616 -1487 )">
    <path d="M 4.875 0  L 21.125 0  C 22.467881944444446 0  23.616102430555557 0.4767795138888873  24.569661458333332 1.4303385416666676  C 25.52322048611111 2.383897569444442  26 3.532118055555552  26 4.875  L 26 21.125  C 26 22.467881944444443  25.52322048611111 23.616102430555557  24.569661458333332 24.569661458333332  C 23.616102430555557 25.52322048611111  22.467881944444446 26  21.125 26  L 4.875 26  C 3.532118055555556 26  2.3838975694444446 25.52322048611111  1.4303385416666667 24.569661458333332  C 0.47677951388888884 23.616102430555557  0 22.467881944444443  0 21.125  L 0 4.875  C 0 3.532118055555552  0.47677951388888884 2.383897569444442  1.4303385416666667 1.4303385416666676  C 2.3838975694444446 0.4767795138888873  3.532118055555556 0  4.875 0  Z M 10.088541666666666 6.356119791666668  C 9.614583333333334 6.260199652777778  9.067274305555557 6.212239583333332  8.446614583333334 6.212239583333332  L 2.1666666666666665 6.212239583333332  L 2.1666666666666665 19.533854166666668  L 8.6328125 19.533854166666668  C 9.953125 19.533854166666668  11.06467013888889 19.209418402777775  11.967447916666666 18.560546875  C 12.870225694444445 17.91167534722222  13.321614583333332 16.949652777777775  13.321614583333332 15.674479166666664  C 13.321614583333332 13.891493055555555  12.514756944444445 12.763020833333332  10.901041666666666 12.2890625  C 12.108506944444445 11.702256944444443  12.712239583333334 10.776909722222223  12.712239583333334 9.513020833333332  C 12.712239583333334 8.869791666666664  12.602213541666666 8.325303819444443  12.382161458333334 7.879557291666668  C 12.162109375 7.4338107638888875  11.843315972222223 7.092447916666668  11.42578125 6.85546875  C 11.008246527777779 6.618489583333332  10.5625 6.452039930555552  10.088541666666666 6.356119791666668  Z M 9.868489583333334 10.00390625  C 9.868489583333334 11.064670138888888  9.270399305555557 11.595052083333332  8.07421875 11.595052083333332  L 5.095052083333333 11.595052083333332  L 5.095052083333333 8.48046875  L 7.854166666666666 8.48046875  C 9.19704861111111 8.48046875  9.868489583333334 8.98828125  9.868489583333334 10.00390625  Z M 10.393229166666666 15.505208333333336  C 10.393229166666666 16.678819444444446  9.671006944444445 17.265625  8.2265625 17.265625  L 5.095052083333333 17.265625  L 5.095052083333333 13.592447916666664  L 8.294270833333334 13.592447916666664  C 9.69357638888889 13.592447916666664  10.393229166666666 14.23003472222222  10.393229166666666 15.505208333333336  Z M 20.507161458333332 17.46875  C 20.09526909722222 17.694444444444446  19.669270833333332 17.807291666666664  19.229166666666668 17.807291666666664  C 18.461805555555557 17.807291666666664  17.875 17.592881944444446  17.46875 17.1640625  C 17.062500000000004 16.735243055555554  16.859375000000004 16.131510416666664  16.859375 15.352864583333336  L 23.81640625 15.352864583333336  C 23.82769097222222 15.24001736111111  23.833333333333332 15.070746527777775  23.833333333333332 14.845052083333336  C 23.833333333333332 13.35546875  23.412977430555557 12.111328125  22.572265625 11.112630208333332  C 21.731553819444446 10.113932291666664  20.583333333333332 9.614583333333332  19.127604166666668 9.614583333333332  C 17.68315972222222 9.614583333333332  16.49826388888889 10.099826388888888  15.572916666666668 11.0703125  C 14.647569444444445 12.04079861111111  14.184895833333332 13.25954861111111  14.184895833333332 14.7265625  C 14.184895833333332 16.25  14.630642361111112 17.47439236111111  15.522135416666668 18.399739583333336  C 16.41362847222222 19.325086805555554  17.61545138888889 19.787760416666668  19.127604166666668 19.787760416666668  C 21.44097222222222 19.787760416666668  22.94748263888889 18.710069444444446  23.647135416666668 16.5546875  L 21.311197916666668 16.5546875  C 21.18706597222222 16.938368055555554  20.919053819444446 17.243055555555554  20.507161458333332 17.46875  Z M 17.51953125 12.170572916666668  C 17.91449652777778 11.798177083333332  18.42795138888889 11.611979166666668  19.059895833333332 11.611979166666668  C 20.335069444444446 11.611979166666668  21.03472222222222 12.300347222222223  21.158854166666668 13.677083333333336  L 16.859375 13.677083333333336  C 16.90451388888889 13.04513888888889  17.12456597222222 12.54296875  17.51953125 12.170572916666668  Z M 16.317708333333332 8.412760416666668  L 16.317708333333332 7.109375  L 21.717447916666668 7.109375  L 21.717447916666668 8.412760416666668  L 16.317708333333332 8.412760416666668  Z " fill-rule="nonzero" fill="#ffffff" stroke="none" transform="matrix(1 0 0 1 616 1487 )" />
  </g>
</svg>