<?xml version="1.0" encoding="utf-8"?>
<svg version="1.1" xmlns:xlink="http://www.w3.org/1999/xlink" width="30px" height="30px" xmlns="http://www.w3.org/2000/svg">
  <g transform="matrix(1 0 0 1 -701 -1639 )">
    <path d="M 5.625 0  L 24.375 0  C 25.92447916666667 0  27.249348958333336 0.5501302083333315  28.349609375 1.650390625000001  C 29.449869791666664 2.7506510416666643  30 4.0755208333333295  30 5.625  L 30 24.375  C 30 25.924479166666664  29.449869791666664 27.249348958333336  28.349609375 28.349609375  C 27.249348958333336 29.449869791666664  25.92447916666667 30  24.375 30  L 5.625 30  C 4.075520833333333 30  2.750651041666667 29.449869791666664  1.650390625 28.349609375  C 0.5501302083333333 27.249348958333336  0 25.924479166666664  0 24.375  L 0 5.625  C 0 4.0755208333333295  0.5501302083333333 2.7506510416666643  1.650390625 1.650390625000001  C 2.750651041666667 0.5501302083333315  4.075520833333333 0  5.625 0  Z M 11.640625 7.333984375000001  C 11.09375 7.223307291666666  10.462239583333334 7.167968749999999  9.74609375 7.167968749999999  L 3 7.167968749999999  L 3 22.5390625  L 9.9609375 22.5390625  C 11.484375 22.5390625  12.766927083333336 22.164713541666664  13.80859375 21.416015625  C 14.850260416666668 20.66731770833333  15.371093749999998 19.557291666666664  15.371093749999998 18.085937499999996  C 15.371093749999998 16.028645833333332  14.440104166666668 14.726562499999998  12.578125 14.1796875  C 13.971354166666668 13.502604166666664  14.66796875 12.434895833333334  14.66796875 10.976562499999998  C 14.66796875 10.234374999999998  14.541015625 9.606119791666664  14.287109375 9.091796875000002  C 14.033203125 8.577473958333332  13.665364583333336 8.183593750000002  13.18359375 7.91015625  C 12.701822916666668 7.636718749999999  12.1875 7.4446614583333295  11.640625 7.333984375000001  Z M 11.38671875 11.54296875  C 11.38671875 12.766927083333332  10.696614583333334 13.378906249999998  9.31640625 13.378906249999998  L 5.87890625 13.378906249999998  L 5.87890625 9.78515625  L 9.0625 9.78515625  C 10.611979166666666 9.78515625  11.38671875 10.37109375  11.38671875 11.54296875  Z M 11.9921875 17.890625000000004  C 11.9921875 19.244791666666668  11.158854166666668 19.921875  9.4921875 19.921875  L 5.87890625 19.921875  L 5.87890625 15.683593749999998  L 9.5703125 15.683593749999998  C 11.184895833333336 15.683593749999998  11.9921875 16.41927083333333  11.9921875 17.890625000000004  Z M 23.662109375 20.15625  C 23.186848958333332 20.416666666666668  22.6953125 20.546874999999996  22.1875 20.546874999999996  C 21.302083333333336 20.546874999999996  20.625 20.299479166666668  20.15625 19.8046875  C 19.687500000000004 19.309895833333332  19.453125000000004 18.613281249999996  19.453125 17.714843750000004  L 27.48046875 17.714843750000004  C 27.493489583333332 17.584635416666664  27.5 17.389322916666664  27.5 17.128906250000004  C 27.5 15.41015625  27.014973958333336 13.974609375  26.044921875 12.822265624999998  C 25.07486979166667 11.669921874999998  23.75 11.093749999999998  22.0703125 11.093749999999998  C 20.403645833333332 11.093749999999998  19.036458333333336 11.653645833333332  17.96875 12.7734375  C 16.901041666666668 13.893229166666664  16.3671875 15.299479166666664  16.3671875 16.9921875  C 16.3671875 18.75  16.881510416666668 20.162760416666664  17.91015625 21.230468750000004  C 18.938802083333332 22.298177083333332  20.325520833333336 22.83203125  22.0703125 22.83203125  C 24.739583333333332 22.83203125  26.477864583333336 21.588541666666668  27.28515625 19.1015625  L 24.58984375 19.1015625  C 24.446614583333332 19.544270833333332  24.13736979166667 19.895833333333332  23.662109375 20.15625  Z M 20.21484375 14.042968750000002  C 20.67057291666667 13.613281249999998  21.263020833333336 13.398437500000002  21.9921875 13.398437500000002  C 23.46354166666667 13.398437500000002  24.270833333333332 14.192708333333334  24.4140625 15.781250000000002  L 19.453125 15.781250000000002  C 19.505208333333336 15.052083333333336  19.759114583333332 14.47265625  20.21484375 14.042968750000002  Z M 18.828125 9.707031250000002  L 18.828125 8.203125  L 25.05859375 8.203125  L 25.05859375 9.707031250000002  L 18.828125 9.707031250000002  Z " fill-rule="nonzero" fill="#ffffff" stroke="none" transform="matrix(1 0 0 1 701 1639 )" />
  </g>
</svg>