<?xml version="1.0" encoding="utf-8"?>
<svg version="1.1" xmlns:xlink="http://www.w3.org/1999/xlink" width="21px" height="21px" xmlns="http://www.w3.org/2000/svg">
  <g transform="matrix(1 0 0 1 -418 -1014 )">
    <path d="M 3.9375 0  L 17.0625 0  C 18.147135416666668 0  19.074544270833336 0.38509114583333204  19.8447265625 1.1552734375000009  C 20.614908854166664 1.9254557291666647  21 2.8528645833333304  21 3.9375  L 21 17.0625  C 21 18.147135416666664  20.614908854166664 19.074544270833336  19.8447265625 19.8447265625  C 19.074544270833336 20.614908854166664  18.147135416666668 21  17.0625 21  L 3.9375 21  C 2.8528645833333335 21  1.925455729166667 20.614908854166664  1.1552734375 19.8447265625  C 0.38509114583333326 19.074544270833336  0 18.147135416666664  0 17.0625  L 0 3.9375  C 0 2.8528645833333304  0.38509114583333326 1.9254557291666647  1.1552734375 1.1552734375000009  C 1.925455729166667 0.38509114583333204  2.8528645833333335 0  3.9375 0  Z M 8.1484375 5.133789062500001  C 7.765625 5.056315104166666  7.323567708333334 5.017578124999999  6.822265625 5.017578124999999  L 2 5.017578124999999  L 2 15.77734375  L 6.97265625 15.77734375  C 8.0390625 15.77734375  8.936848958333334 15.515299479166664  9.666015625 14.9912109375  C 10.395182291666668 14.467122395833332  10.759765625 13.690104166666664  10.759765625 12.660156249999998  C 10.759765625 11.220052083333332  10.108072916666668 10.30859375  8.8046875 9.92578125  C 9.779947916666668 9.451822916666664  10.267578125 8.704427083333334  10.267578125 7.683593749999999  C 10.267578125 7.164062499999998  10.1787109375 6.724283854166665  10.0009765625 6.364257812500001  C 9.8232421875 6.004231770833332  9.565755208333334 5.728515625000001  9.228515625 5.537109375  C 8.891276041666668 5.345703124999999  8.53125 5.21126302083333  8.1484375 5.133789062500001  Z M 7.970703125 8.080078125  C 7.970703125 8.936848958333332  7.487630208333334 9.365234375  6.521484375 9.365234375  L 4.115234375 9.365234375  L 4.115234375 6.849609375  L 6.34375 6.849609375  C 7.428385416666667 6.849609375  7.970703125 7.259765625  7.970703125 8.080078125  Z M 8.39453125 12.523437500000002  C 8.39453125 13.471354166666668  7.811197916666667 13.9453125  6.64453125 13.9453125  L 4.115234375 13.9453125  L 4.115234375 10.978515624999998  L 6.69921875 10.978515624999998  C 7.829427083333334 10.978515624999998  8.39453125 11.493489583333332  8.39453125 12.523437500000002  Z M 16.5634765625 14.109375  C 16.230794270833332 14.291666666666668  15.88671875 14.382812499999998  15.53125 14.382812499999998  C 14.911458333333336 14.382812499999998  14.4375 14.209635416666668  14.109375 13.86328125  C 13.781250000000002 13.516927083333332  13.617187500000002 13.029296874999998  13.6171875 12.400390625000002  L 19.236328125 12.400390625000002  C 19.245442708333332 12.309244791666666  19.25 12.172526041666664  19.25 11.990234375000002  C 19.25 10.787109375  18.910481770833336 9.7822265625  18.2314453125 8.9755859375  C 17.552408854166668 8.168945312499998  16.625 7.765624999999999  15.44921875 7.765624999999999  C 14.282552083333334 7.765624999999999  13.325520833333334 8.157552083333332  12.578125 8.94140625  C 11.830729166666668 9.725260416666666  11.45703125 10.709635416666666  11.45703125 11.89453125  C 11.45703125 13.125  11.817057291666668 14.113932291666666  12.537109375 14.861328125000002  C 13.257161458333334 15.608723958333332  14.227864583333334 15.982421875  15.44921875 15.982421875  C 17.317708333333332 15.982421875  18.534505208333336 15.111979166666668  19.099609375 13.37109375  L 17.212890625 13.37109375  C 17.112630208333332 13.680989583333332  16.896158854166668 13.927083333333332  16.5634765625 14.109375  Z M 14.150390625 9.830078125  C 14.469401041666668 9.529296875  14.884114583333334 9.37890625  15.39453125 9.37890625  C 16.424479166666668 9.37890625  16.989583333333332 9.934895833333334  17.08984375 11.046875000000002  L 13.6171875 11.046875000000002  C 13.653645833333334 10.536458333333334  13.831380208333334 10.130859375  14.150390625 9.830078125  Z M 13.1796875 6.794921875000001  L 13.1796875 5.7421875  L 17.541015625 5.7421875  L 17.541015625 6.794921875000001  L 13.1796875 6.794921875000001  Z " fill-rule="nonzero" fill="#ffffff" stroke="none" transform="matrix(1 0 0 1 418 1014 )" />
  </g>
</svg>