<?xml version="1.0" encoding="utf-8"?>
<svg version="1.1" xmlns:xlink="http://www.w3.org/1999/xlink" width="42px" height="42px" xmlns="http://www.w3.org/2000/svg">
  <g transform="matrix(1 0 0 1 -985 -2290 )">
    <path d="M 7.875 0  L 34.125 0  C 36.294270833333336 0  38.14908854166667 0.7701822916666641  39.689453125 2.3105468750000018  C 41.22981770833333 3.8509114583333295  42 5.705729166666661  42 7.875  L 42 34.125  C 42 36.29427083333333  41.22981770833333 38.14908854166667  39.689453125 39.689453125  C 38.14908854166667 41.22981770833333  36.294270833333336 42  34.125 42  L 7.875 42  C 5.705729166666667 42  3.850911458333334 41.22981770833333  2.310546875 39.689453125  C 0.7701822916666665 38.14908854166667  0 36.29427083333333  0 34.125  L 0 7.875  C 0 5.705729166666661  0.7701822916666665 3.8509114583333295  2.310546875 2.3105468750000018  C 3.850911458333334 0.7701822916666641  5.705729166666667 0  7.875 0  Z M 16.296875 10.267578125000002  C 15.53125 10.112630208333332  14.647135416666668 10.035156249999998  13.64453125 10  L 4 10  L 4 31.5546875  L 13.9453125 31.5546875  C 16.078125 31.5546875  17.873697916666668 31.03059895833333  19.33203125 29.982421875  C 20.790364583333336 28.934244791666664  21.51953125 27.38020833333333  21.51953125 25.320312499999996  C 21.51953125 22.440104166666664  20.216145833333336 20.6171875  17.609375 19.8515625  C 19.559895833333336 18.90364583333333  20.53515625 17.408854166666668  20.53515625 15.367187499999998  C 20.53515625 14.328124999999996  20.357421875 13.44856770833333  20.001953125 12.728515625000002  C 19.646484375 12.008463541666664  19.131510416666668 11.457031250000002  18.45703125 11.07421875  C 17.782552083333336 10.691406249999998  17.0625 10.42252604166666  16.296875 10.267578125000002  Z M 15.94140625 16.16015625  C 15.94140625 17.873697916666664  14.975260416666668 18.73046875  13.04296875 18.73046875  L 8.23046875 18.73046875  L 8.23046875 13.69921875  L 12.6875 13.69921875  C 14.856770833333334 13.69921875  15.94140625 14.51953125  15.94140625 16.16015625  Z M 16.7890625 25.046875000000004  C 16.7890625 26.942708333333336  15.622395833333334 27.890625  13.2890625 27.890625  L 8.23046875 27.890625  L 8.23046875 21.957031249999996  L 13.3984375 21.957031249999996  C 15.658854166666668 21.957031249999996  16.7890625 22.986979166666664  16.7890625 25.046875000000004  Z M 33.126953125 28.21875  C 32.461588541666664 28.583333333333336  31.7734375 28.765624999999996  31.0625 28.765624999999996  C 29.82291666666667 28.765624999999996  28.875 28.419270833333336  28.21875 27.7265625  C 27.562500000000004 27.033854166666664  27.234375000000004 26.058593749999996  27.234375 24  L 38.47265625 24  C 38.490885416666664 24.618489583333332  38.5 24.34505208333333  38.5 23.980468750000004  C 38.5 21.57421875  37.82096354166667 19.564453125  36.462890625 17.951171875  C 35.104817708333336 16.337890624999996  33.25 15.531249999999998  30.8984375 15.531249999999998  C 28.565104166666668 15.531249999999998  26.651041666666668 16.315104166666664  25.15625 17.8828125  C 23.661458333333336 19.450520833333332  22.9140625 21.419270833333332  22.9140625 23.7890625  C 22.9140625 26.25  23.634114583333336 28.227864583333332  25.07421875 29.722656250000004  C 26.514322916666668 31.217447916666664  28.455729166666668 31.96484375  30.8984375 31.96484375  C 34.635416666666664 31.96484375  37.06901041666667 30.223958333333336  38.19921875 26.7421875  L 34.42578125 26.7421875  C 34.225260416666664 27.361979166666664  33.792317708333336 27.854166666666664  33.126953125 28.21875  Z M 28.30078125 19.66015625  C 28.938802083333336 19.05859375  29.768229166666668 18.7578125  30.7890625 18.7578125  C 32.848958333333336 18.7578125  33.979166666666664 19.869791666666668  34.1796875 22.093750000000004  L 27.234375 22.093750000000004  C 27.307291666666668 21.072916666666668  27.662760416666668 20.26171875  28.30078125 19.66015625  Z M 26.359375 13.589843750000002  L 26.359375 11.484375  L 35.08203125 11.484375  L 35.08203125 13.589843750000002  L 26.359375 13.589843750000002  Z " fill-rule="nonzero" fill="#ffffff" stroke="none" transform="matrix(1 0 0 1 985 2290 )" />
  </g>
</svg>