<?xml version="1.0" encoding="UTF-8"?>
<svg id="Layer_1" data-name="Layer 1" xmlns="http://www.w3.org/2000/svg" viewBox="0 0 507.1 61.42">
  <defs>
    <style>
      .cls-1 {
        fill: #fff;
      }
    </style>
  </defs>
  <path class="cls-1" d="m507.1,55.42c-.15.29-.33.56-.46.86-1.4,3.36-4.03,5.12-7.74,5.12-15.25,0-30.49,0-45.74,0-4.4,0-8.81,0-13.21,0-5.46,0-8.72-3.19-8.72-8.54,0-14.8-.01-29.6,0-44.4,0-3.57,1.56-6.22,5.01-7.62.25-.1.62-.1.56-.53,21.44,0,42.88,0,64.32,0,.13.09.26.22.41.27,2.24.75,3.93,2.11,4.91,4.27.13.28.31.48.66.38v50.19Zm-68.03-43.47s0,0,.01,0c0,.86.02,1.72,0,2.58-.02.68.24,1.14.84,1.52,9.5,5.96,18.99,11.94,28.47,17.93.55.35,1,.41,1.59.04,9.41-5.94,18.83-11.87,28.27-17.78.84-.53,1.16-1.17,1.11-2.13-.07-1.19.02-2.38-.03-3.57-.02-.62.34-1.48-.34-1.8-.56-.27-1.11.41-1.62.73-9.01,5.65-18.02,11.31-27.01,16.98-.73.46-1.33.63-2.15.11-6.67-4.24-13.37-8.44-20.06-12.65-2.7-1.7-5.41-3.37-8.1-5.08-.76-.48-1.01-.33-.97.54.04.86,0,1.72,0,2.58Z"/>
  <g>
    <path class="cls-1" d="m141.19.04c.17.46.61.54.97.72,3.01,1.53,4.66,4.88,3.95,8.02-.74,3.27-3.59,5.57-6.97,5.64-4.04.08-6.89-1.81-7.78-5.16-.96-3.6.7-7.1,4.06-8.58.37-.16.83-.18,1.03-.64h4.74Z"/>
    <path class="cls-1" d="m165.94,24.88c.72-.2.93-.59,1.17-.91,6.44-8.47,21.13-6.3,24.76,4.78.76,2.32,1.24,4.68,1.24,7.12.02,8.04,0,16.08.05,24.11,0,1.15-.38,1.45-1.45,1.43-3.78-.05-7.56-.06-11.34,0-1.13.02-1.4-.42-1.39-1.49.04-6,0-11.99.04-17.99,0-1.65.21-3.31.26-4.96.09-3.72-1.42-6.07-4.33-6.85-3.25-.87-6.58.58-8.1,3.7-1,2.05-1.68,4.2-1.66,6.59.08,6.46,0,12.93.05,19.39,0,1.19-.28,1.65-1.52,1.62-3.24-.08-6.48-.06-9.72,0-1.08.02-1.44-.35-1.44-1.47.03-12.93.03-25.86,0-38.79,0-1.01.33-1.32,1.31-1.31,3.49.05,6.98.06,10.47,0,1.17-.02,1.7.36,1.62,1.6-.07,1.09-.01,2.19-.01,3.42Z"/>
    <path class="cls-1" d="m145.27,40.68c0,6.38-.03,12.76.02,19.13,0,1.22-.33,1.63-1.54,1.6-3.11-.08-6.23-.06-9.34,0-.98.01-1.3-.33-1.29-1.32.02-12.93.02-25.85,0-38.78,0-1.03.31-1.46,1.35-1.44,3.16.04,6.31.05,9.47,0,1.05-.02,1.36.41,1.35,1.43-.03,6.46-.02,12.93-.01,19.39Z"/>
  </g>
  <g>
    <path class="cls-1" d="m298.23,0c-.26.83.5.52.72.56,2.61.5,5.03,1.43,7.22,2.99,3.37,2.4,4.53,5.93,4.84,9.89.47,6.11-1.94,10.63-7.23,13.52-.11.06-.18.17-.42.38.63.32,1.19.63,1.76.89,5.81,2.69,8.35,7.6,8.6,13.82.32,8.11-3.98,13.95-11.96,16.74-2.81.98-5.65,1.33-8.57.72-.95-.2-1.9-.2-2.85-.2-8.18,0-16.36-.02-24.54.02-1.16,0-1.58-.3-1.58-1.56.04-18.88.02-37.76.03-56.63,0-.38.05-.76.08-1.14,11.3,0,22.6,0,33.91,0Zm-11.86,33.5c-2.93,0-5.42.02-7.91-.01-.81-.01-1.12.29-1.09,1.12.04,1.19,0,2.38,0,3.57,0,3.53,0,7.05,0,10.58,0,.52-.15,1.14.75,1.12,4.81-.08,9.63.03,14.43-.22,4.42-.23,7.54-1.79,7.98-6.78.4-4.49-1.31-8.4-6.17-9.18-2.81-.45-5.63-.05-8-.2Zm-1.66-9.29v-.03c1.33,0,2.66-.01,3.99,0,1.37.01,2.74-.02,4.09-.27,3.35-.62,5.3-2.96,5.34-6.49.05-3.65-1.69-5.91-5.11-6.63-.57-.12-1.14-.2-1.72-.26-4.22-.43-8.46-.16-12.69-.25-.89-.02-1.27.23-1.26,1.21.04,3.83.04,7.65,0,11.48,0,.97.36,1.26,1.25,1.24,2.03-.04,4.07-.01,6.1-.01Z"/>
    <path class="cls-1" d="m344.65,40.93c-4.73,0-9.47,0-14.2,0-.66,0-1.28-.02-1.22.96.25,3.7,1.63,7.98,5.97,9.46,3.54,1.21,7.11,1.26,10.45-.82,1.16-.72,2.14-1.63,2.69-2.92.39-.92,1.01-1.22,1.96-1.2,2.57.05,5.15.05,7.72,0,1.1-.02,1.3.42.95,1.4-2.69,7.52-7.74,12.16-15.58,13.26-5.05.71-10.04.44-14.7-2.01-6.49-3.42-10-9.02-11.05-16.28-.81-5.68-.23-11.19,2.51-16.33,6.5-12.22,23.23-15.11,33.15-5.62,3.81,3.64,5.69,8.39,6.56,13.59.29,1.73.23,3.47.29,5.21.03,1.02-.35,1.32-1.31,1.31-4.73-.03-9.47-.02-14.2-.01Zm-6.01-7.33c2.78,0,5.55-.02,8.33.01.9.01,1.2-.36,1.06-1.23-.3-1.97-.98-3.76-2.32-5.25-2.01-2.23-4.59-2.64-7.38-2.55-4.73.14-8.16,3.18-8.95,7.93-.15.93.13,1.11.93,1.11,2.78-.02,5.55,0,8.33-.01Z"/>
    <path class="cls-1" d="m338.79,10.3c-3.49,0-6.98-.04-10.47.02-1.15.02-1.57-.38-1.51-1.54.07-1.23.03-2.47,0-3.7-.03-.75.21-1.09.98-1.09,7.31.01,14.62.02,21.94,0,.82,0,1.12.37,1.11,1.16-.01,1.28-.03,2.55,0,3.83.03.99-.37,1.35-1.33,1.34-3.57-.04-7.15-.01-10.72-.01Z"/>
  </g>
  <g>
    <path class="cls-1" d="m45.22.07c-.21.22-.47.39.11.5,1.02.19,2.04.41,3.03.72,6.34,2.04,9.79,6.3,11.14,13.39.71,3.74.52,7.54.52,11.32,0,5.27.03,10.55-.03,15.82-.04,2.81-.36,5.6-1.3,8.27-2.18,6.18-6.6,9.61-12.8,10.77-1.8.34-3.62.53-5.45.53-7.02.01-14.04.05-21.06-.02-2.74-.03-5.44-.38-8.08-1.3-5.98-2.08-9.28-6.44-10.52-12.63-.54-2.68-.7-5.4-.73-8.11-.06-6.38-.05-12.76.02-19.14.03-2.94.43-5.84,1.31-8.66C3.49,4.77,8.38,1.61,14.9.53c.21-.04.89.34.66-.46h29.67Zm9.19,29.93c-.11-4.46.14-9.09-.26-13.72-.44-5.11-3.77-9.05-8.64-10.01-1.76-.35-3.54-.48-5.32-.49-6.02-.04-12.04-.01-18.06-.04-2.08,0-4.15.09-6.22.29-2.78.27-5.19,1.32-7.17,3.42-2.38,2.52-2.99,5.71-3.02,8.95-.08,8.84-.38,17.68.18,26.52.35,5.51,3.7,9.36,9.02,10.3,1.51.27,3.05.4,4.58.41,7.02.04,14.04.05,21.05,0,1.9-.02,3.82-.12,5.68-.61,4.65-1.21,7.52-5.24,7.92-10.69.34-4.72.16-9.43.25-14.32Z"/>
    <path class="cls-1" d="m29.8,46.58c-8.44-.04-15.32-7.23-15.29-16,.03-8.75,7.03-15.81,15.65-15.76,8.58.05,15.43,7.27,15.36,16.21-.06,8.6-7.13,15.59-15.72,15.55Zm9.93-15.85c.33-5.31-4.39-10.12-9.57-10.15-5.48-.02-9.88,4.49-9.88,10.11,0,5.63,4.4,10.16,9.85,10.13,5.32-.02,9.61-4.53,9.6-10.1Z"/>
    <path class="cls-1" d="m45.97,18.14c-2.03,0-3.65-1.71-3.66-3.86-.01-1.99,1.68-3.73,3.64-3.76,1.94-.02,3.77,1.82,3.77,3.82,0,2.04-1.74,3.81-3.75,3.8Z"/>
  </g>
</svg>