<?xml version="1.0" encoding="UTF-8"?>
<svg id="Layer_1" data-name="Layer 1" xmlns="http://www.w3.org/2000/svg" viewBox="0 0 28.3 28.36">
  <defs>
    <style>
      .cls-1 {
        fill: #fff;
      }
    </style>
  </defs>
  <path class="cls-1" d="m13.64,0c8.5.09,14.05,6.32,14.6,12.84.34,4.09-.81,7.71-3.54,10.77-2.65,2.99-6.04,4.55-10.01,4.73-4.18.18-7.77-1.32-10.69-4.3C1.75,21.73.39,18.95.08,15.71c-.38-3.99.67-7.58,3.27-10.65C6.15,1.75,9.78.16,13.64,0ZM2.78,14.39c-.09,1.81.48,3.63,1.43,5.34.95,1.72,2.26,3.11,3.92,4.15,1.65,1.03,3.47,1.63,5.4,1.7,3.71.13,6.86-1.18,9.28-4.01,2.05-2.39,2.95-5.22,2.69-8.36-.26-3.07-1.62-5.65-3.93-7.66-2.33-2.03-5.11-2.9-8.17-2.71-3.12.19-5.78,1.48-7.83,3.87-1.84,2.15-2.86,4.63-2.79,7.68Z"/>
  <path class="cls-1" d="m19.32,17.82c.63.47,1.24.92,1.85,1.37.15.11.04.21-.03.29-.36.39-.71.81-1.11,1.16-.59.51-1.23.95-1.95,1.28-.77.35-1.56.63-2.42.68-.41.03-.82.1-1.22.08-.53-.02-1.06-.1-1.59-.18-1.27-.19-2.36-.77-3.36-1.54-1.43-1.12-2.44-2.53-2.97-4.29-.33-1.08-.45-2.19-.34-3.29.14-1.46.62-2.83,1.48-4.04.81-1.15,1.83-2.06,3.08-2.72.57-.3,1.17-.51,1.79-.68.87-.23,1.75-.27,2.64-.21,1.55.1,2.97.59,4.24,1.53.66.49,1.23,1.08,1.78,1.69.1.12.07.19-.03.26-.44.33-.88.65-1.32.98-.12.09-.24.18-.36.28-.09.07-.15.08-.23-.03-.63-.85-1.4-1.54-2.38-1.97-.6-.26-1.22-.44-1.89-.44-.21,0-.42,0-.62,0-1.25-.05-2.32.42-3.28,1.17-1.16.91-1.88,2.1-2.26,3.51-.07.28-.09.58-.11.87-.02.41-.02.82,0,1.22.03.82.28,1.57.65,2.29.32.62.71,1.2,1.22,1.68.76.71,1.63,1.25,2.67,1.5.68.16,1.35.13,2.03.07,1.11-.08,2.06-.56,2.9-1.26.38-.32.69-.73,1.02-1.1.04-.04.07-.09.13-.16Z"/>
</svg>